<svg xmlns="http://www.w3.org/2000/svg" xmlns:xlink="http://www.w3.org/1999/xlink" version="1.1" x="0px" y="0px" viewBox="0 0 68 85" style="enable-background:new 0 0 68 68;" xml:space="preserve"><g><g><path d="M6.02065,5.69133C3.8001,5.69133,2,7.49143,2,9.71198v10.9131h9.02591v-9.92849    C11.02591,7.93227,8.78496,5.69133,6.02065,5.69133z"/><path d="M39.49596,54.16982c-0.00999,0-0.01997,0.00999-0.01997,0.00999c-0.6585,0.23945-1.41681,0.18958-2.0753-0.1397    c-0.04994,0.00999-0.1098,0.01997-0.16967,0.01997h-7.8424c-0.54876,0-0.99776-0.44901-0.99776-0.99776    c0-0.54882,0.44901-0.99776,0.99776-0.99776h6.49545c-0.08982-0.45899-0.05986-0.94789,0.09975-1.39689    c0.03294-0.09048,1.5647-4.54871,2.17972-6.34594c0.1628-0.47576,0.43389-0.90727,0.78947-1.26283    c0.59074-0.59072,1.15935-1.15933,1.71033-1.71036H29.38862c-0.54876,0-0.99776-0.43902-0.99776-0.99776    c0-0.54876,0.44901-0.99776,0.99776-0.99776h13.27024c3.46227-3.46221,6.09632-6.09632,8.10183-8.10183V9.62964    c0-2.17665-1.76453-3.94118-3.94118-3.94118H10.90009c1.18728,1.14745,1.96556,2.71395,2.09528,4.46003l0.0299,0.0299v49.74847    c0,1.31702,1.06765,2.38467,2.38467,2.38467h32.96614c1.31698,0,2.38461-1.06762,2.38461-2.38461V47.55464l-3.65724,3.65724    c-0.35638,0.35638-0.78575,0.62489-1.26274,0.78764C44.10749,52.5909,39.82411,54.05775,39.49596,54.16982z M29.38862,13.93999    H45.0635c0.54876,0,0.99776,0.44901,0.99776,0.99776s-0.44901,0.99776-0.99776,0.99776H29.38862    c-0.54876,0-0.99776-0.44901-0.99776-0.99776S28.83986,13.93999,29.38862,13.93999z M29.38862,26.65148H45.0635    c0.54876,0,0.99776,0.43902,0.99776,0.99776c0,0.54876-0.44901,0.99776-0.99776,0.99776H29.38862    c-0.54876,0-0.99776-0.44901-0.99776-0.99776C28.39085,27.0905,28.83986,26.65148,29.38862,26.65148z M25.79669,56.36491    c0,0.55874-0.44901,1.01768-1.01774,1.01768h-5.95668c-0.56867,0-1.01768-0.45893-1.01768-1.01768v-6.60525    c0-0.55874,0.44901-1.01768,1.01768-1.01768h5.95668c0.56873,0,1.01774,0.45893,1.01774,1.01768V56.36491z M25.79669,43.65335    c0,0.56873-0.44901,1.02773-1.01774,1.02773h-5.95668c-0.56867,0-1.01768-0.459-1.01768-1.02773v-6.5952    c0-0.56873,0.44901-1.02766,1.01768-1.02766h5.95668c0.56873,0,1.01774,0.45893,1.01774,1.02766V43.65335z M25.79669,30.95184    c0,0.55875-0.44901,1.01774-1.01774,1.01774h-5.95668c-0.56867,0-1.01768-0.45899-1.01768-1.01774v-6.60519    c0-0.56873,0.44901-1.01774,1.01768-1.01774h5.95668c0.56873,0,1.01774,0.44901,1.01774,1.01774V30.95184z M25.79669,18.24035    c0,0.55874-0.44901,1.01774-1.01774,1.01774h-5.95668c-0.56867,0-1.01768-0.45899-1.01768-1.01774v-6.60519    c0-0.55875,0.44901-1.01774,1.01768-1.01774h5.95668c0.56873,0,1.01774,0.45899,1.01774,1.01774V18.24035z"/><rect x="41.33885" y="35.20209" transform="matrix(0.70711 -0.7071 0.7071 0.70711 -12.56383 47.61069)" width="19.70179" height="7.53854"/><path d="M65.49585,27.56161l-2.89695-2.89695c-0.67226-0.6722-1.76217-0.6722-2.43443,0l-3.26496,3.26496l5.33131,5.33137    l3.26502-3.26496C66.16805,29.32378,66.16805,28.23387,65.49585,27.56161z"/><path d="M38.85093,52.28251l6.63211-2.27371l-5.33131-5.33137l-2.27371,6.63216    C37.67132,51.91236,38.24815,52.48913,38.85093,52.28251z"/></g></g><text x="0" y="83" fill="#000000" font-size="5px" font-weight="bold" font-family="'Helvetica Neue', Helvetica, Arial-Unicode, Arial, Sans-serif">Created by IconsHome</text><text x="0" y="88" fill="#000000" font-size="5px" font-weight="bold" font-family="'Helvetica Neue', Helvetica, Arial-Unicode, Arial, Sans-serif">from the Noun Project</text></svg>